<svg id="visual" viewBox="0 0 900 300" width="900" height="300" xmlns="http://www.w3.org/2000/svg" xmlns:xlink="http://www.w3.org/1999/xlink" version="1.1"><path d="M0 253L21.5 250.5C43 248 86 243 128.8 237.8C171.7 232.7 214.3 227.3 257.2 230.3C300 233.3 343 244.7 385.8 250C428.7 255.3 471.3 254.7 514.2 247.2C557 239.7 600 225.3 642.8 221.3C685.7 217.3 728.3 223.7 771.2 223.2C814 222.7 857 215.3 878.5 211.7L900 208L900 301L878.5 301C857 301 814 301 771.2 301C728.3 301 685.7 301 642.8 301C600 301 557 301 514.2 301C471.3 301 428.7 301 385.8 301C343 301 300 301 257.2 301C214.3 301 171.7 301 128.8 301C86 301 43 301 21.5 301L0 301Z" fill="#0D1B2A" stroke-linecap="round" stroke-linejoin="miter"></path></svg>