<svg id="visual" viewBox="0 0 900 450" width="900" height="450" xmlns="http://www.w3.org/2000/svg" xmlns:xlink="http://www.w3.org/1999/xlink" version="1.1"><path d="M0 150L21.5 147.8C43 145.7 86 141.3 128.8 142.7C171.7 144 214.3 151 257.2 155.3C300 159.7 343 161.3 385.8 153.5C428.7 145.7 471.3 128.3 514.2 114.5C557 100.7 600 90.3 642.8 86.5C685.7 82.7 728.3 85.3 771.2 95.2C814 105 857 122 878.5 130.5L900 139L900 0L878.5 0C857 0 814 0 771.2 0C728.3 0 685.7 0 642.8 0C600 0 557 0 514.2 0C471.3 0 428.7 0 385.8 0C343 0 300 0 257.2 0C214.3 0 171.7 0 128.8 0C86 0 43 0 21.5 0L0 0Z" fill="#0D1B2A" stroke-linecap="round" stroke-linejoin="miter"></path></svg>