<svg id="visual" viewBox="0 0 900 450" width="900" height="450" xmlns="http://www.w3.org/2000/svg" xmlns:xlink="http://www.w3.org/1999/xlink" version="1.1"><path d="M0 313L21.5 321.5C43 330 86 347 128.8 351.7C171.7 356.3 214.3 348.7 257.2 336.2C300 323.7 343 306.3 385.8 310.3C428.7 314.3 471.3 339.7 514.2 348.3C557 357 600 349 642.8 335.2C685.7 321.3 728.3 301.7 771.2 295.2C814 288.7 857 295.3 878.5 298.7L900 302L900 451L878.5 451C857 451 814 451 771.2 451C728.3 451 685.7 451 642.8 451C600 451 557 451 514.2 451C471.3 451 428.7 451 385.8 451C343 451 300 451 257.2 451C214.3 451 171.7 451 128.8 451C86 451 43 451 21.5 451L0 451Z" fill="#0D1B2A" stroke-linecap="round" stroke-linejoin="miter"></path></svg>