<svg id="visual" viewBox="0 0 900 450" width="900" height="450" xmlns="http://www.w3.org/2000/svg" xmlns:xlink="http://www.w3.org/1999/xlink" version="1.1"><rect x="0" y="0" width="900" height="450" fill="#001220"></rect><path d="M0 306L21.5 302.2C43 298.3 86 290.7 128.8 283.7C171.7 276.7 214.3 270.3 257.2 279C300 287.7 343 311.3 385.8 313C428.7 314.7 471.3 294.3 514.2 292.3C557 290.3 600 306.7 642.8 306.3C685.7 306 728.3 289 771.2 285.8C814 282.7 857 293.3 878.5 298.7L900 304L900 451L878.5 451C857 451 814 451 771.2 451C728.3 451 685.7 451 642.8 451C600 451 557 451 514.2 451C471.3 451 428.7 451 385.8 451C343 451 300 451 257.2 451C214.3 451 171.7 451 128.8 451C86 451 43 451 21.5 451L0 451Z" fill="#001122"></path><path d="M0 319L21.5 322.5C43 326 86 333 128.8 335.2C171.7 337.3 214.3 334.7 257.2 329.2C300 323.7 343 315.3 385.8 319.8C428.7 324.3 471.3 341.7 514.2 348.8C557 356 600 353 642.8 349.5C685.7 346 728.3 342 771.2 336.5C814 331 857 324 878.5 320.5L900 317L900 451L878.5 451C857 451 814 451 771.2 451C728.3 451 685.7 451 642.8 451C600 451 557 451 514.2 451C471.3 451 428.7 451 385.8 451C343 451 300 451 257.2 451C214.3 451 171.7 451 128.8 451C86 451 43 451 21.5 451L0 451Z" fill="#0a233a"></path><path d="M0 344L21.5 350.5C43 357 86 370 128.8 375.3C171.7 380.7 214.3 378.3 257.2 375.5C300 372.7 343 369.3 385.8 369.3C428.7 369.3 471.3 372.7 514.2 372.5C557 372.3 600 368.7 642.8 366C685.7 363.3 728.3 361.7 771.2 357.3C814 353 857 346 878.5 342.5L900 339L900 451L878.5 451C857 451 814 451 771.2 451C728.3 451 685.7 451 642.8 451C600 451 557 451 514.2 451C471.3 451 428.7 451 385.8 451C343 451 300 451 257.2 451C214.3 451 171.7 451 128.8 451C86 451 43 451 21.5 451L0 451Z" fill="#163554"></path><path d="M0 363L21.5 367C43 371 86 379 128.8 383.8C171.7 388.7 214.3 390.3 257.2 387.7C300 385 343 378 385.8 372.8C428.7 367.7 471.3 364.3 514.2 363.3C557 362.3 600 363.7 642.8 364.2C685.7 364.7 728.3 364.3 771.2 370.7C814 377 857 390 878.5 396.5L900 403L900 451L878.5 451C857 451 814 451 771.2 451C728.3 451 685.7 451 642.8 451C600 451 557 451 514.2 451C471.3 451 428.7 451 385.8 451C343 451 300 451 257.2 451C214.3 451 171.7 451 128.8 451C86 451 43 451 21.5 451L0 451Z" fill="#22496f"></path><path d="M0 397L21.5 397.5C43 398 86 399 128.8 402.5C171.7 406 214.3 412 257.2 412C300 412 343 406 385.8 406.8C428.7 407.7 471.3 415.3 514.2 418.5C557 421.7 600 420.3 642.8 421C685.7 421.7 728.3 424.3 771.2 425.8C814 427.3 857 427.7 878.5 427.8L900 428L900 451L878.5 451C857 451 814 451 771.2 451C728.3 451 685.7 451 642.8 451C600 451 557 451 514.2 451C471.3 451 428.7 451 385.8 451C343 451 300 451 257.2 451C214.3 451 171.7 451 128.8 451C86 451 43 451 21.5 451L0 451Z" fill="#2f5d8c"></path></svg>